<svg width="24" height="24" viewBox="0 0 24 24" fill="none" xmlns="http://www.w3.org/2000/svg">
<path d="M17.8109 15.8851L17.7987 15.9014L17.8131 15.9158L22.9582 21.0609C23.1868 21.3168 23.3088 21.6505 23.2992 21.9935C23.2896 22.3368 23.1489 22.6633 22.9061 22.9061C22.6633 23.1489 22.3368 23.2896 21.9935 23.2992C21.6505 23.3088 21.3168 23.1868 21.0609 22.9582L15.9158 17.8131L15.9014 17.7987L15.8851 17.8109C14.24 19.0467 12.2376 19.7138 10.18 19.7116C4.92435 19.7116 0.648438 15.4356 0.648438 10.18C0.648438 4.92435 4.92435 0.648438 10.18 0.648438C15.4356 0.648438 19.7116 4.92435 19.7116 10.18C19.7138 12.2376 19.0467 14.24 17.8109 15.8851ZM3.33156 10.18V10.18C3.33374 11.9957 4.05597 13.7363 5.33982 15.0202C6.62368 16.304 8.36433 17.0263 10.18 17.0284C11.5345 17.0284 12.8586 16.6268 13.9848 15.8743C15.111 15.1218 15.9888 14.0522 16.5071 12.8008C17.0255 11.5494 17.1611 10.1724 16.8968 8.84394C16.6326 7.51547 15.9803 6.29519 15.0226 5.33742C14.0648 4.37965 12.8445 3.7274 11.5161 3.46315C10.1876 3.1989 8.81061 3.33453 7.55922 3.85287C6.30783 4.37121 5.23825 5.24899 4.48573 6.37521C3.73322 7.50143 3.33156 8.82551 3.33156 10.18Z" fill="#232321" stroke="#232321" stroke-width="0.046875"/>
</svg>
