<svg width="20" height="22" viewBox="0 0 20 22" fill="none" xmlns="http://www.w3.org/2000/svg">
<path d="M18.2506 21.4766H18.2503L1.75027 21.4766L1.74996 21.4766C1.53748 21.4793 1.32705 21.4347 1.13398 21.3459C0.940917 21.2571 0.770075 21.1264 0.633885 20.9633L0.63387 20.9632C0.334012 20.6048 0.212587 20.1146 0.302394 19.6179L0.302396 19.6179C0.696834 17.4298 1.92767 15.5916 3.86327 14.3008C5.58316 13.1546 7.76246 12.5234 10.0003 12.5234C12.2381 12.5234 14.4174 13.1551 16.1373 14.3008C18.0729 15.5912 19.3037 17.4293 19.6981 19.6174C19.7879 20.1142 19.6665 20.6043 19.3667 20.9628L19.3666 20.9628C19.2305 21.126 19.0597 21.2568 18.8666 21.3457C18.6735 21.4346 18.4631 21.4793 18.2506 21.4766ZM10.0003 0.523438C11.4003 0.523438 12.668 1.0633 13.5756 2.04311C14.4943 3.03505 14.9424 4.37056 14.8364 5.80358C14.6257 8.65898 12.4568 10.9766 10.0003 10.9766C7.54369 10.9766 5.3711 8.65849 5.16364 5.80268C5.05907 4.3564 5.50444 3.01811 6.41745 2.03375C7.3207 1.06009 8.59261 0.523438 10.0003 0.523438Z" fill="#232321" stroke="#232321" stroke-width="0.046875"/>
</svg>
